<?xml version="1.0" encoding="UTF-8"?>
<svg id="Ebene_2" data-name="Ebene 2" xmlns="http://www.w3.org/2000/svg" width="99.492" height="28.642" viewBox="0 0 99.492 28.642">
  <defs>
    <style>
      .cls-1 {
        fill: #3b0101;
      }
    </style>
  </defs>
  <g id="Parkplätze_und_Oientierungspunkte_Kopie" data-name="Parkplätze und Oientierungspunkte Kopie">
    <path class="cls-1" d="M99.492,22.309c-.74-.991-1.466-1.964-2.19-2.934-3.861-.391-7.669-.776-11.417-1.156-4.058-3.205-8.024-6.337-11.886-9.387-5.513-3.054-10.838-6.003-15.945-8.832C37.092,5.051,19.307,9.337,6.232,12.488c-1.629.402-3.224.796-4.705,1.162-.534.799-1.045,1.565-1.527,2.286,1.619.053,3.053.099,4.21.137.984.018,1.729.032,2.198.041.021,1.279.042,2.519.061,3.671.038,1.462.072,2.806.103,4.021.092,2.59.224,4.84.336,2.887.053-1.358.116-2.979.19-4.88.05-1.872.107-4.021.172-6.46,1.566-.156,3.257-.326,5.076-.507,1.964-.21,4.065-.435,6.307-.675.843-.095,1.677-.189,2.499-.282,0,2.337.001,4.603.002,6.777.009,1.189.017,2.351.025,3.483.006.564.012,1.12.018,1.668.003.273.007.545.01.814l.003.201.003.039.006.074c-3.244.084-6.143.159-8.538.222-2.472.083-4.347.172-5.446.25l-.193.019c-.703.114.611.219,3.277.309,1.365.034,3.029.075,4.929.122,2.097.028,4.45.059,6.982.092.001-.156.003-.321.004-.479h0c.796.038,1.696.08,2.711.128.534.018,1.097.038,1.691.058.303.009.613.018.931.027.193.003.396.007.593.01,0,.012-.002.022-.002.034,1.975.04,4.144.084,6.466.132.018.002.025.003.045.005.048.003.097.006.155.01l.058.004v-.013c.03,0,.057.001.086.002,0-.013,0-.027,0-.04.01,0,.014.003.024.003.133-.001.268-.003.405-.004.211-.018.424-.037.64-.055.002-.021.005-.044.007-.065.491.2,1.286.4,2.445.503,1.206.086,2.304-.091,2.972-.297,0,.046.001.095.002.141l.009.578h.583c.13.002.26.002.387.002h.603s-.003-.145-.003-.145c.023.006.04.023.064.027.137.015.25-.049.349-.134,3.803.048,7.74.098,11.746.149,3.515.036,6.965.071,10.329.106.002-.052.004-.101.006-.153,2.835-.217,5.869-.45,9.055-.694,3.761-.03,7.733-.063,11.796-.095,3.837-.047,7.575-.092,11.18-.136-.004-1.745-.008-3.454-.013-5.142.65-.038,1.297-.075,1.936-.113ZM74.256,11.708c4.472,3.419,8.48,6.482,11.849,9.058-.8-.037-1.616-.075-2.408-.111-2.964-1.925-5.873-3.815-8.697-5.65-.994-1.228-1.978-2.443-2.94-3.631-1.948-.61-3.866-1.211-5.755-1.802.004-.1.008-.204.012-.303-5.284,1.076-10.222,2.082-14.743,3.003-1.297.27-2.544.53-3.767.784-2.712.551-5.338,1.084-7.85,1.594-3.613.316-7.007.612-10.172.888.001-.022.003-.044.004-.066-1.445-.518-2.857-1.023-4.234-1.517-1.098-.383-2.165-.755-3.217-1.121,0-.092,0-.187,0-.279-.202.025-.392.048-.592.073-.183-.064-.372-.13-.554-.193,0,.089.002.172.003.261-2.562.315-5.048.62-7.401.909-1.893.245-3.706.479-5.433.702,8.249-1.543,20.153-3.855,36.006-7.054,5.081-1.047,10.036-2.068,14.784-3.047,5.381,2.673,10.472,5.201,15.104,7.502ZM85.447,19.361h0,0ZM97.225,21.254c-.083.005-.165.01-.245.015-.882-.041-1.746-.081-2.622-.121-.681-.08-1.432-.168-2.256-.266-1.558-.17-3.367-.367-5.384-.588.031-.194.004-.442-.077-.684-.018-.048-.043-.089-.064-.134,3.402.346,6.774.69,10.087,1.027.189.253.378.505.561.75ZM73.412,9.819c-.003.107.007.22.031.342-4.394-2.236-9.113-4.637-13.994-7.121-.014-.28-.091-.637-.221-1-.034-.088-.074-.166-.112-.248,4.495,2.521,9.243,5.183,14.25,7.99.015.012.031.025.047.037ZM1.742,13.963c6.287-1.425,14.081-3.192,23.436-5.312,9.327-2.149,20.207-4.657,32.692-7.534-.012.27.014.591.111.974.123.427.354.777.594,1.033-.307.063-.612.125-.922.189C36.466,7.672,18.102,11.604,6.874,14.118c-2.898.657-5.552,1.28-6.298,1.509.359-.512.728-1.038,1.166-1.664ZM4.1,15.873c-1.009-.06-2.075-.124-3.3-.198.218-.032.514-.079.921-.15,1.364-.244,2.925-.529,4.662-.851.008.468.015.909.023,1.362-.425-.038-1.162-.091-2.306-.163ZM24.299,27.123c-.812.048-1.576.104-2.062.159.028-3.063.058-6.361.089-9.765.003-1.176.006-2.332.01-3.477.005.003.009.005.032.014l.824.301c.553.201,1.112.404,1.674.608,1.268.451,2.506.891,3.706,1.318-.162,3.304-.382,8.439-.419,10.662-1.432.067-2.718.126-3.853.179ZM35.423,27.402c-.062.053-.32.156-.456.235-.003-.285-.005-.587-.008-.877.031-.458.064-.939.099-1.456.051-.896.107-1.883.168-2.973h.009c.002.298.004.596.005.889.006.252.012.5.017.748.02.468.039.928.059,1.39l.087,1.223.052.539.057.233-.09.05ZM39.328,27.054c-1.29-.032-2.411.09-3.1.273-.052.016-.1.035-.147.054.056-.519.112-1.041.17-1.574.063-.708.116-1.526.152-2.458.009-.438.014-.306.015-.323v-.002l.466-.017c.328-.018.656-.036.993-.055.64-.044,1.233-.103,1.759-.168.743-.092,1.344-.199,1.77-.299-.002.27.004.843.005,1.241.005.655.011,1.329.016,2.021.008.526.016,1.041.024,1.558-.508-.125-1.283-.218-2.125-.25ZM43.093,27.338c-.026.003-.043.021-.068.026-.032-1.879-.063-3.693-.093-5.444.169.014.333.027.503.041-.067,1.747-.137,3.556-.208,5.392-.045-.005-.088-.017-.134-.015ZM44.338,27.283c.061-2.156.12-4.258.177-6.292-.542-.037-1.072-.073-1.601-.109,0-.034-.001-.072-.002-.106-.939.042-1.859.083-2.757.123-.708.038-1.397.076-2.067.112-.034.002-.066.004-.1.006-1.364.053-2.695.106-3.989.156.06,2.069.118,4.042.172,5.905-1.876.011-3.625.02-5.235.029.11-1.369.229-2.846.358-4.454.126-1.766.262-3.683.411-5.766.013-.222.026-.439.04-.659,3.19-.237,6.645-.493,10.326-.766,7.552-1.464,16.044-3.111,25.137-4.875-.18,3.691-.374,7.657-.58,11.884-.076,1.673-.152,3.333-.227,4.976-7.032-.058-13.793-.114-20.063-.165ZM74.542,26.719c-3.189.304-6.193.59-8.966.854.24-5.921.469-11.578.685-16.908,1.691.54,3.411,1.091,5.156,1.648.922,1.15,1.87,2.334,2.826,3.527.082.054.167.11.25.164-.167.953-.318,2.435-.373,4.498-.047,2.694.263,5.094.53,6.216-.035,0-.072.001-.108.002ZM96.402,26.315v.085s-.001.003-.001.003v.005c-3.798.043-7.505.085-11.076.126-3.57.061-7.003.121-10.265.177.155-.863.251-2.677.251-4.66-.016-2.379-.172-4.444-.372-5.754,2.749,1.801,5.549,3.636,8.389,5.498,1.69.082,3.391.165,5.1.248.473.037.929.073,1.412.11,1.118.095,2.284.151,3.475.225.596.031,1.199.016,1.81.026.306.002.613.004.923.006h.011c.122.006.246.012.368.018-.007,1.04-.015,2.112-.022,3.209l-.003.677Z"/>
  </g>
</svg>